<svg width="24" height="24" viewBox="0 0 24 24" fill="none" xmlns="http://www.w3.org/2000/svg">
<path d="M7.42825 18.146V6.05461M11.9997 18.2222V12.1499M16.5711 18.2451V9.10223M4.38063 1.48318H19.6187C20.427 1.48318 21.2022 1.80427 21.7737 2.37581C22.3453 2.94735 22.6663 3.72253 22.6663 4.5308V19.7689C22.6663 20.5772 22.3453 21.3524 21.7737 21.9239C21.2022 22.4954 20.427 22.8165 19.6187 22.8165H4.38063C3.57235 22.8165 2.79717 22.4954 2.22563 21.9239C1.6541 21.3524 1.33301 20.5772 1.33301 19.7689V4.5308C1.33301 3.72253 1.6541 2.94735 2.22563 2.37581C2.79717 1.80427 3.57235 1.48318 4.38063 1.48318V1.48318Z" stroke="#414955" stroke-width="2" stroke-linecap="round" stroke-linejoin="round"/>
</svg>
