<svg width="1024" height="1024" viewBox="0 0 1024 1024" fill="none" xmlns="http://www.w3.org/2000/svg">
<path d="M396 512C396 541.704 407.8 570.192 428.804 591.196C449.808 612.2 478.296 624 508 624C537.704 624 566.192 612.2 587.196 591.196C608.2 570.192 620 541.704 620 512C620 482.296 608.2 453.808 587.196 432.804C566.192 411.8 537.704 400 508 400C478.296 400 449.808 411.8 428.804 432.804C407.8 453.808 396 482.296 396 512V512ZM942.2 486.2C847.4 286.5 704.1 186 512 186C319.8 186 176.6 286.5 81.7999 486.3C77.9975 494.352 76.0254 503.146 76.0254 512.05C76.0254 520.954 77.9975 529.748 81.7999 537.8C176.6 737.5 319.9 838 512 838C704.2 838 847.4 737.5 942.2 537.7C949.9 521.5 949.9 502.7 942.2 486.2V486.2ZM508 688C410.8 688 332 609.2 332 512C332 414.8 410.8 336 508 336C605.2 336 684 414.8 684 512C684 609.2 605.2 688 508 688Z" fill="black"/>
</svg>
