<svg width="32" height="32" viewBox="0 0 32 32" fill="none" xmlns="http://www.w3.org/2000/svg">
<path d="M7.5 4C7.10218 4 6.72064 4.15804 6.43934 4.43934C6.15804 4.72064 6 5.10218 6 5.5C6 5.89782 6.15804 6.27936 6.43934 6.56066C6.72064 6.84196 7.10218 7 7.5 7H24.5C24.8978 7 25.2794 6.84196 25.5607 6.56066C25.842 6.27936 26 5.89782 26 5.5C26 5.10218 25.842 4.72064 25.5607 4.43934C25.2794 4.15804 24.8978 4 24.5 4H7.5ZM17.06 9.44C16.7787 9.1591 16.3975 9.00132 16 9.00132C15.6025 9.00132 15.2213 9.1591 14.94 9.44L8.44 15.94C8.17504 16.2243 8.03079 16.6004 8.03765 16.989C8.04451 17.3776 8.20193 17.7484 8.47676 18.0232C8.75158 18.2981 9.12235 18.4555 9.51095 18.4624C9.89956 18.4692 10.2757 18.325 10.56 18.06L14.5 14.12V26.5C14.5 26.8978 14.658 27.2794 14.9393 27.5607C15.2206 27.842 15.6022 28 16 28C16.3978 28 16.7794 27.842 17.0607 27.5607C17.342 27.2794 17.5 26.8978 17.5 26.5V14.12L21.44 18.06C21.5773 18.2074 21.7429 18.3256 21.9269 18.4076C22.1109 18.4895 22.3095 18.5336 22.511 18.5372C22.7124 18.5407 22.9124 18.5037 23.0992 18.4282C23.286 18.3528 23.4556 18.2405 23.5981 18.0981C23.7405 17.9556 23.8528 17.786 23.9282 17.5992C24.0037 17.4124 24.0407 17.2124 24.0372 17.011C24.0336 16.8096 23.9895 16.6109 23.9076 16.4269C23.8256 16.2429 23.7074 16.0773 23.56 15.94L17.06 9.44Z" fill="#777E90"/>
</svg>
